<svg width="30" height="39" viewBox="0 0 16 16" fill="none" xmlns="http://www.w3.org/2000/svg">
<path fill-rule="evenodd" clip-rule="evenodd" d="M8.39785 11.7992C9.52635 11.1904 12.6667 9.20798 12.6667 5.99998C12.6667 3.42265 10.5773 1.33331 8.00001 1.33331C5.42268 1.33331 3.33334 3.42265 3.33334 5.99998C3.33334 9.20798 6.47367 11.1904 7.60217 11.7992C7.85287 11.9344 8.14715 11.9344 8.39785 11.7992ZM8.00001 7.99998C9.10458 7.99998 10 7.10455 10 5.99998C10 4.89541 9.10458 3.99998 8.00001 3.99998C6.89544 3.99998 6.00001 4.89541 6.00001 5.99998C6.00001 7.10455 6.89544 7.99998 8.00001 7.99998Z" fill="white"/>
<path d="M12.0415 11C12.451 11.304 12.6667 11.6489 12.6667 12C12.6667 12.3511 12.451 12.696 12.0415 13C11.6319 13.304 11.0428 13.5565 10.3333 13.7321C9.62392 13.9076 8.81918 14 8.00001 14C7.18084 14 6.3761 13.9076 5.66668 13.7321C4.95725 13.5565 4.36814 13.304 3.95856 13C3.54897 12.696 3.33334 12.3511 3.33334 12C3.33334 11.6489 3.54897 11.304 3.95856 11" stroke="white" stroke-width="2" stroke-linecap="round"/>
</svg>
