<svg width="32" height="32" fill="none" xmlns="http://www.w3.org/2000/svg">
<circle cx="16" cy="12" r="5.33333" fill="white"/>
<circle cx="22.6667" cy="12" r="4" fill="white"/>
<circle cx="9.33334" cy="12" r="4" fill="white"/>
<path fill-rule="evenodd" clip-rule="evenodd" d="M23.4246 24H26.8951C27.4867 24 27.9404 23.4908 27.813 22.913C27.3966 21.0237 26.1387 17.3334 22.6667 17.3334C21.4853 17.3334 20.5602 17.7607 19.8374 18.3989C21.8477 19.7032 22.8872 21.987 23.4246 24Z" fill="white"/>
<path fill-rule="evenodd" clip-rule="evenodd" d="M12.1626 18.3989C11.4398 17.7607 10.5148 17.3334 9.33332 17.3334C5.8613 17.3334 4.60344 21.0236 4.18696 22.913C4.05961 23.4908 4.51334 24 5.10496 24H8.57539C9.11284 21.987 10.1523 19.7032 12.1626 18.3989Z" fill="white"/>
<path d="M16 18.6666C21.1959 18.6666 22.3422 23.5262 22.5951 25.6703C22.6598 26.2188 22.219 26.6666 21.6667 26.6666H10.3333C9.78106 26.6666 9.34024 26.2188 9.40492 25.6703C9.65781 23.5262 10.8041 18.6666 16 18.6666Z" fill="white"/>
</svg>
