<svg width="50" height="50" viewBox="0 0 33 41" fill="none" xmlns="http://www.w3.org/2000/svg">
<path d="M4.22667 5.86925C4.85571 5.86925 5.45244 6.00839 5.98942 6.25583C6.35368 4.29307 8.07746 2.80177 10.1442 2.80177C10.7934 2.80177 11.4087 2.94921 11.9589 3.21194C12.4147 1.3699 14.0809 0 16.0617 0C18.0426 0 19.7087 1.36999 20.1645 3.21194C20.7146 2.94929 21.33 2.80177 21.9792 2.80177C24.3099 2.80177 26.206 4.69792 26.206 7.02857V17.3607C26.7241 17.1337 27.2958 17.0068 27.8967 17.0068C30.2274 17.0068 32.1235 18.9029 32.1235 21.2336V29.9257C32.1235 36.032 27.1557 40.9999 21.0493 40.9999H11.0741C4.9678 40.9999 -0.000122607 36.032 -0.000122607 29.9257V10.096C-0.000122607 7.7653 1.89602 5.86925 4.22667 5.86925ZM2.53596 29.9257C2.53596 34.6336 6.36619 38.4639 11.0741 38.4639H21.0493C25.7572 38.4639 29.5875 34.6336 29.5875 29.9257V21.2336C29.5875 20.3013 28.829 19.5428 27.8967 19.5428C26.9645 19.5428 26.206 20.3013 26.206 21.2336V27.9964H23.6699V7.02857C23.6699 6.09631 22.9115 5.33785 21.9792 5.33785C21.047 5.33785 20.2885 6.09631 20.2885 7.02857V20.3882H17.7524V4.2268C17.7524 3.29453 16.994 2.53608 16.0617 2.53608C15.1294 2.53608 14.371 3.29453 14.371 4.2268V20.3882H11.8349V7.02857C11.8349 6.09631 11.0765 5.33785 10.1442 5.33785C9.21193 5.33785 8.45347 6.09631 8.45347 7.02857V20.3882H5.91739V10.096C5.91739 9.1637 5.15894 8.40524 4.22667 8.40524C3.29441 8.40524 2.53596 9.1637 2.53596 10.096V29.9257Z" fill="white"/>
</svg>
