<svg width="25" height="25" viewBox="0 0 25 25" fill="none" xmlns="http://www.w3.org/2000/svg">
<path fill-rule="evenodd" clip-rule="evenodd" d="M5.7067 22.9947C7.66247 24.2633 9.9952 25 12.5 25C15.005 25 17.3378 24.2632 19.2937 22.9944C18.5083 22.4482 17.785 21.7739 17.146 20.9874C15.2937 18.7077 14.2779 15.6526 14.2779 12.5C14.2779 9.34742 15.2937 6.2924 17.146 4.01269C17.785 3.22618 18.5084 2.55183 19.2937 2.00559C17.3378 0.736837 15.005 -4.36897e-07 12.5 -5.46392e-07C9.99518 -6.55881e-07 7.66245 0.736744 5.70666 2.00536C6.49762 2.55542 7.21967 3.23157 7.85433 4.01269C8.77315 5.14355 9.49382 6.47563 9.98296 7.92902C10.4721 9.38253 10.7224 10.9353 10.7224 12.5C10.7224 14.0648 10.4721 15.6175 9.98296 17.071C9.49382 18.5244 8.77315 19.8565 7.85433 20.9874C7.21968 21.7685 6.49764 22.4446 5.7067 22.9947ZM4.0297 21.6927C4.86255 21.2117 5.63322 20.5494 6.3021 19.7262C7.0599 18.7935 7.66918 17.6758 8.08743 16.4331C8.50563 15.1905 8.72239 13.8535 8.72239 12.5C8.72239 11.1465 8.50563 9.80957 8.08743 8.56696C7.66919 7.32422 7.0599 6.20655 6.3021 5.27388C5.63321 4.45063 4.86252 3.78838 4.02966 3.30734C1.55203 5.59144 -3.87478e-07 8.86447 -5.46392e-07 12.5C-7.05307e-07 16.1355 1.55204 19.4086 4.0297 21.6927ZM20.9704 3.30738C20.1433 3.7848 19.3726 4.44383 18.6982 5.27388C17.1644 7.16165 16.2779 9.75894 16.2779 12.5C16.2779 15.2411 17.1644 17.8384 18.6982 19.7262C19.3726 20.5562 20.1433 21.2152 20.9703 21.6927C23.448 19.4085 25 16.1355 25 12.5C25 8.8645 23.448 5.59148 20.9704 3.30738Z" fill="white"/>
</svg>
