<svg width="32" height="32" viewBox="0 0 34 34" fill="none" xmlns="http://www.w3.org/2000/svg">
<path d="M7.08334 18.4167V4.75C7.08334 4.5143 7.08334 4.39645 7.15657 4.32322C7.22979 4.25 7.34764 4.25 7.58334 4.25H13.7625C13.962 4.25 14.0618 4.25 14.152 4.28643C14.2421 4.32286 14.3138 4.39219 14.4573 4.53084L16.8085 6.80249C16.952 6.94114 17.0238 7.01047 17.1139 7.0469C17.204 7.08333 17.3038 7.08333 17.5034 7.08333H26.6783C26.921 7.08333 27.0424 7.08333 27.085 7.16151C27.1277 7.23968 27.0619 7.34171 26.9305 7.54576L22.841 13.8959C22.7564 14.0274 22.714 14.0931 22.714 14.1667C22.714 14.2402 22.7564 14.3059 22.841 14.4374L26.9305 20.7876C27.0619 20.9916 27.1277 21.0936 27.085 21.1718C27.0424 21.25 26.921 21.25 26.6783 21.25H17.5034C17.3038 21.25 17.204 21.25 17.1139 21.2136C17.0238 21.1771 16.952 21.1078 16.8085 20.9692L14.4573 18.6975C14.3138 18.5589 14.2421 18.4895 14.152 18.4531C14.0618 18.4167 13.962 18.4167 13.7625 18.4167H7.08334ZM7.08334 18.4167V26.9167" stroke="white" stroke-width="2" stroke-linecap="round"/>
<path d="M7.08334 4.75V17.9167C7.08334 18.1524 7.08334 18.2702 7.15657 18.3434C7.22979 18.4167 7.34764 18.4167 7.58334 18.4167H13.7625C13.962 18.4167 14.0618 18.4167 14.152 18.4531C14.2421 18.4895 14.3138 18.5589 14.4573 18.6975L16.8085 20.9692C16.952 21.1078 17.0238 21.1771 17.1139 21.2136C17.204 21.25 17.3038 21.25 17.5034 21.25H26.6783C26.921 21.25 27.0424 21.25 27.085 21.1718C27.1277 21.0936 27.0619 20.9916 26.9305 20.7876L22.841 14.4374C22.7564 14.3059 22.714 14.2402 22.714 14.1667C22.714 14.0931 22.7564 14.0274 22.841 13.8959L26.9305 7.54576C27.0619 7.34171 27.1277 7.23968 27.085 7.16151C27.0424 7.08333 26.921 7.08333 26.6783 7.08333H17.5034C17.3038 7.08333 17.204 7.08333 17.1139 7.0469C17.0238 7.01047 16.952 6.94114 16.8085 6.8025L14.4573 4.53084L14.4573 4.53083C14.3138 4.39219 14.2421 4.32286 14.152 4.28643C14.0618 4.25 13.962 4.25 13.7625 4.25H7.58334C7.34764 4.25 7.22979 4.25 7.15657 4.32322C7.08334 4.39645 7.08334 4.5143 7.08334 4.75Z" fill="white"/>
</svg>
