<svg width="33" height="41" viewBox="0 0 33 41" fill="none" xmlns="http://www.w3.org/2000/svg">
<path d="M27.8969 5.86925C27.2678 5.86925 26.6711 6.00839 26.1341 6.25583C25.7699 4.29307 24.0461 2.80177 21.9793 2.80177C21.3301 2.80177 20.7149 2.94921 20.1646 3.21194C19.7088 1.3699 18.0427 0 16.0618 0C14.081 0 12.4149 1.36999 11.959 3.21194C11.4089 2.94929 10.7935 2.80177 10.1443 2.80177C7.81366 2.80177 5.91752 4.69792 5.91752 7.02857V17.3607C5.3994 17.1337 4.82776 17.0068 4.2268 17.0068C1.89614 17.0068 0 18.9029 0 21.2336V29.9257C0 36.032 4.96784 40.9999 11.0742 40.9999H21.0494C27.1557 40.9999 32.1237 36.032 32.1237 29.9257V10.096C32.1237 7.7653 30.2275 5.86925 27.8969 5.86925ZM29.5876 29.9257C29.5876 34.6336 25.7573 38.4639 21.0494 38.4639H11.0742C6.36632 38.4639 2.53608 34.6336 2.53608 29.9257V21.2336C2.53608 20.3013 3.29453 19.5428 4.2268 19.5428C5.15906 19.5428 5.91752 20.3013 5.91752 21.2336V27.9964H8.45359V7.02857C8.45359 6.09631 9.21205 5.33785 10.1443 5.33785C11.0766 5.33785 11.835 6.09631 11.835 7.02857V20.3882H14.3711V4.2268C14.3711 3.29453 15.1296 2.53608 16.0618 2.53608C16.9941 2.53608 17.7525 3.29453 17.7525 4.2268V20.3882H20.2886V7.02857C20.2886 6.09631 21.0471 5.33785 21.9793 5.33785C22.9116 5.33785 23.6701 6.09631 23.6701 7.02857V20.3882H26.2061V10.096C26.2061 9.1637 26.9646 8.40524 27.8969 8.40524C28.8291 8.40524 29.5876 9.1637 29.5876 10.096V29.9257Z" fill="white"/>
</svg>
